<svg width="524" height="524" viewBox="0 0 524 524" fill="none" xmlns="http://www.w3.org/2000/svg">
<path d="M436.667 87.3333H131C106.918 87.3333 87.3333 106.918 87.3333 131V240.167H131V174.667L270.733 279.467C274.514 282.298 279.11 283.828 283.833 283.828C288.556 283.828 293.153 282.298 296.933 279.467L436.667 174.667V371.167H262V414.833H436.667C460.749 414.833 480.333 395.249 480.333 371.167V131C480.333 106.918 460.749 87.3333 436.667 87.3333ZM283.833 234.708L145.541 131H422.126L283.833 234.708Z" fill="#1E5276"/>
<path d="M43.6667 262H196.5V305.667H43.6667V262ZM87.3334 327.5H218.333V371.167H87.3334V327.5ZM152.833 393H240.167V436.667H152.833V393Z" fill="#1E5276"/>
</svg>
